<svg width="16" height="16" viewBox="0 0 16 16" fill="none" xmlns="http://www.w3.org/2000/svg">
<g clip-path="url(#clip0_35_852)">
<path d="M13.3333 3.33325C13.5101 3.33325 13.6797 3.40349 13.8047 3.52851C13.9298 3.65354 14 3.82311 14 3.99992C14 4.17673 13.9298 4.3463 13.8047 4.47132C13.6797 4.59635 13.5101 4.66659 13.3333 4.66659H12.6667L12.6647 4.71392L12.0427 13.4279C12.0187 13.7643 11.8682 14.0791 11.6214 14.309C11.3746 14.5388 11.0499 14.6666 10.7127 14.6666H5.28667C4.94943 14.6666 4.62471 14.5388 4.37792 14.309C4.13114 14.0791 3.98061 13.7643 3.95667 13.4279L3.33467 4.71459C3.33366 4.69861 3.33321 4.6826 3.33333 4.66659H2.66667C2.48986 4.66659 2.32029 4.59635 2.19526 4.47132C2.07024 4.3463 2 4.17673 2 3.99992C2 3.82311 2.07024 3.65354 2.19526 3.52851C2.32029 3.40349 2.48986 3.33325 2.66667 3.33325H13.3333ZM9.33333 1.33325C9.51014 1.33325 9.67971 1.40349 9.80474 1.52851C9.92976 1.65354 10 1.82311 10 1.99992C10 2.17673 9.92976 2.3463 9.80474 2.47132C9.67971 2.59635 9.51014 2.66659 9.33333 2.66659H6.66667C6.48986 2.66659 6.32029 2.59635 6.19526 2.47132C6.07024 2.3463 6 2.17673 6 1.99992C6 1.82311 6.07024 1.65354 6.19526 1.52851C6.32029 1.40349 6.48986 1.33325 6.66667 1.33325H9.33333Z" fill="#F8F8F8"/>
</g>
<defs>
<clipPath id="clip0_35_852">
<rect width="16" height="16" fill="white"/>
</clipPath>
</defs>
</svg>
