<svg width="11" height="11" viewBox="0 0 11 11" fill="none" xmlns="http://www.w3.org/2000/svg">
<path fill-rule="evenodd" clip-rule="evenodd" d="M5.03247 0.0202657C5.03269 0.0200437 5.03298 0.0199073 5.0333 0.0198806C5.98243 -0.0610336 6.93632 0.105937 7.80154 0.504446C8.33518 0.750229 8.8238 1.07889 9.25025 1.47627C9.49961 1.70863 9.96937 1.54402 9.96937 1.20318V1.20318C9.96937 1.06642 10.0237 0.935263 10.1204 0.838558C10.2171 0.741854 10.3483 0.687526 10.485 0.687526C10.6218 0.687526 10.7529 0.741854 10.8496 0.838558C10.9464 0.935263 11.0007 1.06642 11.0007 1.20318V1.20318C11.0007 2.81699 9.69243 4.12524 8.07863 4.12524V4.12524C7.94186 4.12524 7.8107 4.07091 7.714 3.97421C7.6173 3.8775 7.56297 3.74634 7.56297 3.60958C7.56297 3.47282 7.6173 3.34166 7.714 3.24496C7.8107 3.14825 7.94186 3.09393 8.07863 3.09393V3.09393C8.59235 3.09393 8.88255 2.53462 8.50194 2.18957C8.15395 1.87409 7.75655 1.61377 7.32317 1.42016C6.52595 1.06402 5.64187 0.949209 4.78013 1.08992C3.91839 1.23063 3.11674 1.62069 2.47422 2.21193C1.8317 2.80317 1.37644 3.56967 1.1647 4.41676C1.14908 4.4833 1.12039 4.54607 1.08029 4.60143C1.04019 4.65678 0.989492 4.70361 0.931135 4.73919C0.872778 4.77477 0.807928 4.7984 0.740358 4.8087C0.672788 4.81899 0.603845 4.81575 0.537538 4.79916C0.471231 4.78258 0.408884 4.75297 0.354121 4.71207C0.299359 4.67117 0.253273 4.61979 0.218546 4.56092C0.183818 4.50205 0.16114 4.43686 0.151832 4.36915C0.142523 4.30144 0.146769 4.23255 0.164323 4.16649C0.442464 3.05434 1.06115 2.05689 1.93391 1.31357C2.80655 0.570346 3.88957 0.118321 5.03164 0.0206509C5.03195 0.0206242 5.03225 0.0204877 5.03247 0.0202657V0.0202657ZM2.69517 10.2313C3.4322 10.6682 4.2611 10.9268 5.11578 10.9866C5.97047 11.0464 6.82731 10.9057 7.61799 10.5757C8.40868 10.2458 9.11135 9.73565 9.66999 9.08605C10.2286 8.43645 10.6278 7.66533 10.8357 6.83416C10.8666 6.70228 10.8444 6.56353 10.7739 6.44787C10.7034 6.33222 10.5902 6.24896 10.4588 6.21608C10.3274 6.18321 10.1883 6.20336 10.0717 6.27219C9.95499 6.34101 9.87009 6.45298 9.8353 6.58389C9.62343 7.4308 9.16816 8.19711 8.5257 8.7882C7.88323 9.37928 7.08171 9.76925 6.22012 9.90995C5.35852 10.0506 4.47459 9.93591 3.67747 9.57991C3.24419 9.38641 2.84688 9.12623 2.49892 8.81092C2.1183 8.466 2.4084 7.90672 2.92206 7.90672V7.90672C3.05882 7.90672 3.18998 7.8524 3.28668 7.75569C3.38339 7.65899 3.43771 7.52783 3.43771 7.39107C3.43771 7.25431 3.38339 7.12315 3.28668 7.02644C3.18998 6.92974 3.05882 6.87541 2.92206 6.87541V6.87541C1.30825 6.87541 0 8.18366 0 9.79747V9.79747C0 9.93423 0.054328 10.0654 0.151032 10.1621C0.247737 10.2588 0.378896 10.3131 0.515657 10.3131C0.652418 10.3131 0.783577 10.2588 0.880281 10.1621C0.976986 10.0654 1.03131 9.93423 1.03131 9.79747V9.79747C1.03131 9.45657 1.50111 9.29191 1.75054 9.52428C2.03839 9.79243 2.35494 10.0296 2.69517 10.2313Z" fill="white"/>
</svg>
