<svg width="14" height="14" viewBox="0 0 14 14" fill="none" xmlns="http://www.w3.org/2000/svg">
<path d="M0.177109 0.118986C0.251797 0.0556154 0.343454 0.0155782 0.440698 0.00384483C0.537942 -0.00788849 0.636491 0.00919896 0.724109 0.0529856L13.7241 6.55299C13.807 6.59455 13.8768 6.65838 13.9255 6.73732C13.9743 6.81627 14.0001 6.90721 14.0001 6.99999C14.0001 7.09276 13.9743 7.18371 13.9255 7.26265C13.8768 7.34159 13.807 7.40542 13.7241 7.44698L0.724109 13.947C0.636551 13.9909 0.538026 14.0081 0.440768 13.9965C0.343509 13.9849 0.251801 13.945 0.177029 13.8817C0.102257 13.8184 0.047714 13.7346 0.0201728 13.6406C-0.00736843 13.5466 -0.00669526 13.4466 0.0221089 13.353L1.97711 6.99999L0.0221089 0.646986C-0.00653052 0.553463 -0.00711086 0.453594 0.0204396 0.359745C0.0479901 0.265895 0.102461 0.182187 0.177109 0.118986ZM2.86911 7.49999L1.32211 12.53L12.3821 6.99999L1.32211 1.46999L2.86911 6.49999H8.50011C8.63272 6.49999 8.75989 6.55266 8.85366 6.64643C8.94743 6.7402 9.00011 6.86738 9.00011 6.99999C9.00011 7.13259 8.94743 7.25977 8.85366 7.35354C8.75989 7.44731 8.63272 7.49999 8.50011 7.49999H2.86911Z" fill="white"/>
</svg>
